<?xml version="1.0" encoding="UTF-8"?>
<svg width="277px" height="68px" viewBox="0 0 277 68" version="1.1" xmlns="http://www.w3.org/2000/svg" xmlns:xlink="http://www.w3.org/1999/xlink">
    <!-- Generator: Sketch 49.3 (51167) - http://www.bohemiancoding.com/sketch -->
    <title>Artboard</title>
    <desc>Created with Sketch.</desc>
    <defs></defs>
    <g id="Artboard" stroke="none" stroke-width="1" fill="none" fill-rule="evenodd">
        <path d="M250.764666,39.0168148 C250.779751,38.9202205 250.79537,38.8224932 250.811523,38.7236328 C251.055665,37.2294847 251.38281,35.6474693 251.792969,33.9775391 C252.203127,32.3076088 252.676755,30.6474692 253.213867,28.9970703 C253.750979,27.3466714 254.312497,25.8867251 254.898438,24.6171875 C256.08985,22.0195183 257.315423,19.7148538 258.575195,17.703125 C259.834967,15.6913962 261.070306,13.938484 262.28125,12.4443359 C263.492194,10.9501878 264.654291,9.69531758 265.767578,8.6796875 C266.880865,7.66405742 267.881831,6.84375313 268.770508,6.21875 C269.659184,5.59374687 270.41113,5.14453262 271.026367,4.87109375 C271.641605,4.59765488 272.066405,4.4609375 272.300781,4.4609375 C272.671877,4.59765693 273.04785,4.79785024 273.428711,5.06152344 C273.809572,5.32519663 274.166014,5.60351416 274.498047,5.89648438 C274.83008,6.18945459 275.123046,6.47753765 275.376953,6.76074219 C275.630861,7.04394673 275.816406,7.25390557 275.933594,7.390625 C276.089845,7.54687578 276.192383,7.69824146 276.241211,7.84472656 C276.290039,7.99121167 276.314453,8.18163945 276.314453,8.41601562 C276.314453,8.88476797 276.197267,9.52929277 275.962891,10.3496094 C275.728514,11.169926 275.289066,12.2099546 274.644531,13.4697266 C273.999997,14.7294985 273.106451,16.2382725 271.963867,17.9960938 C270.821283,19.753915 269.33204,21.8046758 267.496094,24.1484375 C266.636714,25.242193 265.72852,26.3554631 264.771484,27.4882812 C263.951168,28.4648486 263.003912,29.5292911 261.929688,30.6816406 C260.855463,31.8339901 259.751959,32.9374947 258.619141,33.9921875 C258.052732,36.1406357 257.657228,38.035148 257.432617,39.6757812 C257.208007,41.3164145 257.095703,42.5956985 257.095703,43.5136719 C257.095703,44.1191437 257.144531,44.5097647 257.242188,44.6855469 C257.339844,44.861329 257.476562,44.9492188 257.652344,44.9492188 C257.964845,44.9492188 258.389646,44.8125014 258.926758,44.5390625 C259.46387,44.2656236 260.054684,43.9189474 260.699219,43.4990234 C261.343753,43.0790995 262.017575,42.6152369 262.720703,42.1074219 C263.423832,41.5996068 264.083005,41.1015649 264.698242,40.6132812 C265.31348,40.1249976 265.865232,39.6757833 266.353516,39.265625 C266.841799,38.8554667 267.203124,38.5527354 267.4375,38.3574219 C267.613282,38.533204 267.823241,38.7578111 268.067383,39.03125 C268.311525,39.3046889 268.541015,39.5585926 268.755859,39.7929688 C268.32617,40.2226584 267.789066,40.7451141 267.144531,41.3603516 C266.499997,41.975589 265.801762,42.6054655 265.049805,43.25 C264.297848,43.8945345 263.516606,44.5390593 262.706055,45.1835938 C261.895504,45.8281282 261.104496,46.4042943 260.333008,46.9121094 C259.56152,47.4199244 258.843753,47.8300766 258.179688,48.1425781 C257.515622,48.4550797 256.958987,48.6113281 256.509766,48.6113281 C255.904294,48.6113281 255.264652,48.3964865 254.59082,47.9667969 C253.916989,47.5371072 253.287112,47.0341826 252.701172,46.4580078 C252.115231,45.8818331 251.61719,45.3007842 251.207031,44.7148438 C250.796873,44.1289033 250.5625,43.6894546 250.503906,43.3964844 C250.464844,43.2792963 250.445312,43.1376961 250.445312,42.9716797 L250.445312,42.4296875 C250.445312,42.3151062 250.446993,42.1969625 250.450354,42.0752563 C249.545641,42.869228 248.669939,43.5830726 247.823242,44.2167969 C246.231437,45.4082091 244.712898,46.3652308 243.267578,47.0878906 C241.822258,47.8105505 240.440436,48.3281234 239.12207,48.640625 C237.803704,48.9531266 236.519538,49.109375 235.269531,49.109375 C234.742185,49.109375 234.156253,48.9140645 233.511719,48.5234375 C232.867184,48.1328105 232.266604,47.6591825 231.709961,47.1025391 C231.153318,46.5458957 230.689455,45.9648468 230.318359,45.359375 C229.967756,44.7873373 229.782776,44.293759 229.763416,43.8786268 C229.513934,44.096982 229.264345,44.3122443 229.014648,44.5244141 C227.325187,45.9599681 225.650399,47.3027281 223.990234,48.5527344 C223.677733,49.4511764 223.340822,50.3642532 222.979492,51.2919922 C222.618162,52.2197312 222.242189,53.1523391 221.851563,54.0898438 C221.285153,55.3789127 220.62598,56.6142519 219.874023,57.7958984 C219.122067,58.977545 218.326176,60.071284 217.486328,61.0771484 C216.64648,62.0830128 215.787114,62.9912069 214.908203,63.8017578 C214.029292,64.6123087 213.184574,65.3007784 212.374023,65.8671875 C211.563473,66.4335966 210.811527,66.8730453 210.118164,67.1855469 C209.424801,67.4980484 208.833987,67.6542969 208.345703,67.6542969 C208.01367,67.6542969 207.623049,67.507814 207.173828,67.2148438 C206.724607,66.9218735 206.299807,66.5556663 205.899414,66.1162109 C205.499021,65.6767556 205.157228,65.1982448 204.874023,64.6806641 C204.590819,64.1630833 204.449219,63.6699242 204.449219,63.2011719 C204.449219,62.1855418 204.795895,61.189458 205.489258,60.2128906 C206.182621,59.2363232 207.139642,58.2304739 208.360352,57.1953125 C209.581061,56.1601511 211.011711,55.0712948 212.652344,53.9287109 C214.292977,52.7861271 216.070303,51.5507879 217.984375,50.2226562 C218.414065,49.1093694 218.897458,47.7861405 219.43457,46.2529297 C219.971682,44.7197189 220.611324,42.8300894 221.353516,40.5839844 C220.650387,41.5605518 219.830083,42.5224562 218.892578,43.4697266 C217.955073,44.4169969 216.988286,45.261715 215.992188,46.0039062 C214.996089,46.7460975 214.004888,47.3466774 213.018555,47.8056641 C212.032222,48.2646507 211.12891,48.4941406 210.308594,48.4941406 C210.093749,48.4941406 209.815431,48.3916026 209.473633,48.1865234 C209.131834,47.9814443 208.790041,47.7128923 208.448242,47.3808594 C208.106444,47.0488265 207.813478,46.6582054 207.569336,46.2089844 C207.325194,45.7597634 207.203125,45.2812525 207.203125,44.7734375 C207.203125,44.128903 207.359373,43.3525436 207.671875,42.4443359 C207.374056,42.6024617 207.076189,42.7441093 206.77832,42.8691406 C205.987301,43.2011735 205.181645,43.440429 204.361328,43.5869141 C203.541012,43.7333992 202.701176,43.8066406 201.841797,43.8066406 C201.177731,44.5097691 200.464848,45.1542939 199.703125,45.7402344 C198.941402,46.3261748 198.165043,46.8339822 197.374023,47.2636719 C196.583004,47.6933615 195.796879,48.0253895 195.015625,48.2597656 C194.234371,48.4941418 193.492191,48.6113281 192.789063,48.6113281 C192.203122,48.6113281 191.597659,48.4355486 190.972656,48.0839844 C190.347653,47.7324201 189.781253,47.2978542 189.273438,46.7802734 C188.765622,46.2626927 188.345705,45.7109404 188.013672,45.125 C187.681639,44.5390596 187.515625,44.0214866 187.515625,43.5722656 C187.515625,42.0878832 187.715818,40.6132886 188.116211,39.1484375 C188.516604,37.6835864 189.141597,36.3115298 189.991211,35.0322266 C190.840825,33.7529233 191.924798,32.6250049 193.243164,31.6484375 C194.56153,30.6718701 196.128897,29.92969 197.945313,29.421875 C198.003907,29.3828123 198.106445,29.3535157 198.25293,29.3339844 C198.399415,29.314453 198.521484,29.3046875 198.619141,29.3046875 C198.892579,29.3046875 199.180663,29.4072255 199.483398,29.6123047 C199.786134,29.8173838 200.069335,30.0468737 200.333008,30.3007812 C200.596681,30.5546888 200.816405,30.8037097 200.992188,31.0478516 C201.16797,31.2919934 201.255859,31.4531246 201.255859,31.53125 C201.216797,31.6289067 201.070314,31.7509758 200.816406,31.8974609 C200.562499,32.043946 200.220705,32.292967 199.791016,32.6445312 C199.361326,32.9960955 198.853519,33.4990202 198.267578,34.1533203 C197.681638,34.8076205 197.037113,35.6718696 196.333984,36.7460938 C195.279292,38.3281329 194.566408,39.7587827 194.195313,41.0380859 C193.824217,42.3173892 193.638672,43.3085902 193.638672,44.0117188 C193.638672,44.5976592 193.853513,44.890625 194.283203,44.890625 C194.732424,44.890625 195.328121,44.5341833 196.070313,43.8212891 C196.812504,43.1083949 197.58398,42.2050836 198.384766,41.1113281 C198.345703,40.8964833 198.321289,40.7060555 198.311523,40.5400391 C198.301758,40.3740226 198.296875,40.2226569 198.296875,40.0859375 C198.296875,39.6953105 198.34082,39.231448 198.428711,38.6943359 C198.516602,38.1572239 198.736326,37.5468784 199.087891,36.8632812 C199.322267,36.3359349 199.605467,35.8183619 199.9375,35.3105469 C200.210939,34.8613259 200.542967,34.3779323 200.933594,33.8603516 C201.324221,33.3427708 201.753904,32.8593772 202.222656,32.4101562 L202.398438,32.234375 C202.593751,32.4687512 202.852537,32.7861308 203.174805,33.1865234 C203.497072,33.5869161 203.819334,33.9970682 204.141602,34.4169922 C204.463869,34.8369162 204.747069,35.2226545 204.991211,35.5742188 C205.235353,35.925783 205.386718,36.1699212 205.445313,36.3066406 C205.445313,37.1464886 205.293947,37.9863239 204.991211,38.8261719 C204.688475,39.6660198 204.283206,40.4960896 203.775391,41.3164062 C204.947271,41.2382809 206.036128,40.9404323 207.041992,40.4228516 C207.96107,39.9499281 208.916824,39.2038832 209.909278,38.1846975 C210.301421,37.6134791 210.732377,37.03629 211.202148,36.453125 C212.051762,35.3984322 213.008784,34.4072312 214.073242,33.4794922 C215.137701,32.5517532 216.299798,31.7216833 217.55957,30.9892578 C218.819342,30.2568323 220.162102,29.6953145 221.587891,29.3046875 C221.802735,29.3046875 222.105467,29.3876945 222.496094,29.5537109 C222.886721,29.7197274 223.272459,29.9052724 223.65332,30.1103516 C224.034182,30.3154307 224.36621,30.515624 224.649414,30.7109375 C224.932619,30.906251 225.074219,31.0332028 225.074219,31.0917969 C225.074219,31.1308596 225.044922,31.1796872 224.986328,31.2382812 C224.947265,31.2578126 224.917969,31.2675781 224.898438,31.2675781 C224.449217,31.541017 223.87305,31.9218726 223.169922,32.4101562 C222.466793,32.8984399 221.724613,33.4501922 220.943359,34.0654297 C220.162105,34.6806671 219.380863,35.3398402 218.599609,36.0429688 C217.818355,36.7460973 217.110355,37.4443325 216.475586,38.1376953 C215.840817,38.8310582 215.328127,39.495114 214.9375,40.1298828 C214.546873,40.7646516 214.351563,41.335935 214.351563,41.84375 C214.351563,42.0195321 214.395507,42.1708978 214.483398,42.2978516 C214.57129,42.4248053 214.703124,42.4882812 214.878906,42.4882812 C215.36719,42.4882812 215.918942,42.3173845 216.53418,41.9755859 C217.149417,41.6337874 217.779294,41.1894559 218.423828,40.6425781 C219.068363,40.0957004 219.712887,39.4853549 220.357422,38.8115234 C221.001956,38.1376919 221.612302,37.4736361 222.188477,36.8193359 C222.764651,36.1650358 223.277342,35.5546903 223.726563,34.9882812 C224.175783,34.4218722 224.527342,33.9628924 224.78125,33.6113281 C224.820313,33.5722654 224.854492,33.5332033 224.883789,33.4941406 C224.913086,33.4550779 224.957031,33.4160158 225.015625,33.3769531 C225.171876,33.4160158 225.381835,33.6113264 225.645508,33.9628906 C225.909181,34.3144549 226.167967,34.7197243 226.421875,35.1787109 C226.675783,35.6376976 226.895507,36.0917946 227.081055,36.5410156 C227.266602,36.9902366 227.359375,37.312499 227.359375,37.5078125 L227.359375,37.5664062 C227.359375,37.5859376 227.339844,37.6542963 227.300781,37.7714844 C227.085936,38.4550815 226.812502,39.4121032 226.480469,40.6425781 C226.148436,41.873053 225.728518,43.2890545 225.220703,44.890625 C226.470709,43.8945263 227.72558,42.8496148 228.985352,41.7558594 C229.339821,41.4481028 229.693903,41.1341622 230.047597,40.8140368 C230.146413,40.3264758 230.270847,39.8542844 230.420898,39.3974609 C230.860354,38.0595636 231.441403,36.853521 232.164063,35.7792969 C232.886722,34.7050728 233.711909,33.7578166 234.639648,32.9375 C235.567387,32.1171834 236.534175,31.4335965 237.540039,30.8867188 C238.545903,30.339841 239.54687,29.9296889 240.542969,29.65625 C241.539067,29.3828111 242.457027,29.2460938 243.296875,29.2460938 C243.902347,29.2460938 244.502927,29.4218732 245.098633,29.7734375 C245.694339,30.1250018 246.236326,30.554685 246.724609,31.0625 C247.212893,31.570315 247.608397,32.1025363 247.911133,32.6591797 C248.213869,33.2158231 248.365234,33.6992167 248.365234,34.109375 C248.365234,34.7734408 248.086917,35.452145 247.530273,36.1455078 C246.97363,36.8388707 246.187505,37.5468714 245.171875,38.2695312 C244.156245,38.9921911 242.935554,39.7294884 241.509766,40.4814453 C240.083977,41.2334022 238.511727,41.9902306 236.792969,42.7519531 C236.734375,43.2207055 236.705078,43.6796853 236.705078,44.1289062 C236.705078,44.734378 236.836913,45.1445302 237.100586,45.359375 C237.364259,45.5742198 237.857418,45.6816406 238.580078,45.6816406 C239.869147,45.6816406 241.084955,45.466799 242.227539,45.0371094 C243.370123,44.6074197 244.468745,44.0507847 245.523438,43.3671875 C246.57813,42.6835903 247.593745,41.9023481 248.570313,41.0234375 C249.30733,40.3601218 250.038777,39.6912514 250.764666,39.0168148 Z M116.686493,38.9224253 C116.907932,38.154928 117.148501,37.3611287 117.408203,36.5410156 C117.779299,35.3691348 118.184568,34.1728577 118.624023,32.9521484 C119.063479,31.7314392 119.537107,30.5546932 120.044922,29.421875 C120.865238,29.812502 121.778315,30.2910128 122.78418,30.8574219 C123.790044,31.423831 124.722652,32.0878868 125.582031,32.8496094 C125.347655,33.4746125 125.113282,34.1093718 124.878906,34.7539062 C124.64453,35.3984407 124.410157,36.0624966 124.175781,36.7460938 C125.406256,35.3398367 126.465816,34.1923873 127.354492,33.3037109 C128.243169,32.4150346 128.995114,31.7167994 129.610352,31.2089844 C130.225589,30.7011693 130.723631,30.3544931 131.104492,30.1689453 C131.485353,29.9833975 131.783202,29.890625 131.998047,29.890625 C132.251954,29.890625 132.63281,30.0175769 133.140625,30.2714844 C133.64844,30.5253919 134.16113,30.8378888 134.678711,31.2089844 C135.196292,31.58008 135.645506,31.9609355 136.026367,32.3515625 C136.407228,32.7421895 136.597656,33.0839829 136.597656,33.3769531 C136.597656,33.4355472 136.587891,33.5087886 136.568359,33.5966797 C136.548828,33.6845708 136.519531,33.7968743 136.480469,33.9335938 C136.324218,34.4218774 136.124025,34.9980436 135.879883,35.6621094 C135.635741,36.3261752 135.376954,37.0146449 135.103516,37.7275391 L134.283203,39.8662109 C134.009764,40.5791051 133.765626,41.2480438 133.550781,41.8730469 C133.335936,42.49805 133.160157,43.0449195 133.023438,43.5136719 C132.886718,43.9824242 132.818359,44.3242177 132.818359,44.5390625 C132.818359,44.6562506 132.876953,44.7148438 132.994141,44.7148438 C133.208985,44.7148438 133.531248,44.5878919 133.960938,44.3339844 C134.390627,44.0800769 134.883786,43.7480489 135.44043,43.3378906 C135.997073,42.9277323 136.578122,42.4785181 137.183594,41.9902344 C137.789066,41.5019507 138.370114,41.0185571 138.926758,40.5400391 C139.483401,40.061521 139.986326,39.6269551 140.435547,39.2363281 C140.884768,38.8457012 141.226561,38.5527354 141.460938,38.3574219 C141.656251,38.533204 141.871093,38.7578111 142.105469,39.03125 C142.339845,39.3046889 142.564452,39.5585926 142.779297,39.7929688 C142.349607,40.2226584 141.812503,40.7451141 141.167969,41.3603516 C140.523434,41.975589 139.825199,42.6054655 139.073242,43.25 C138.321285,43.8945345 137.540043,44.5390593 136.729492,45.1835938 C135.918941,45.8281282 135.132816,46.4042943 134.371094,46.9121094 C133.609371,47.4199244 132.896488,47.8300766 132.232422,48.1425781 C131.568356,48.4550797 131.011721,48.6113281 130.5625,48.6113281 C130.26953,48.6113281 129.89844,48.5087901 129.449219,48.3037109 C128.999998,48.0986318 128.565432,47.8447281 128.145508,47.5419922 C127.725584,47.2392563 127.369142,46.9023456 127.076172,46.53125 C126.783202,46.1601544 126.636719,45.7988299 126.636719,45.4472656 C126.812501,44.6464804 127.051756,43.7382863 127.354492,42.7226562 C127.657228,41.7070262 127.984373,40.6669975 128.335938,39.6025391 C128.687502,38.5380806 129.053709,37.4834037 129.43457,36.4384766 C129.815432,35.3935495 130.181639,34.431645 130.533203,33.5527344 L130.474609,33.6113281 C130.103514,34.0605491 129.571293,34.6513635 128.87793,35.3837891 C128.184567,36.1162146 127.398442,37.0537052 126.519531,38.1962891 C125.640621,39.3388729 124.712896,40.7158123 123.736328,42.3271484 C122.759761,43.9384846 121.802739,45.8476452 120.865234,48.0546875 C120.748046,48.3281264 120.640625,48.542968 120.542969,48.6992188 C120.445312,48.8554695 120.259767,48.9335938 119.986328,48.9335938 C119.654295,48.9335938 119.278322,48.8408212 118.858398,48.6552734 C118.438474,48.4697256 118.008791,48.2255875 117.569336,47.9228516 C117.129881,47.6201157 116.690432,47.283205 116.250977,46.9121094 C115.811521,46.5410138 115.416017,46.1699237 115.064453,45.7988281 C115.064453,45.68164 115.118164,45.3496121 115.225586,44.8027344 C115.333008,44.2558566 115.484374,43.567387 115.679688,42.7373047 C115.694402,42.6747693 115.709393,42.6115689 115.724661,42.5477035 C115.012509,43.1550291 114.318808,43.7113925 113.643555,44.2167969 C112.05175,45.4082091 110.53321,46.3652308 109.087891,47.0878906 C107.642571,47.8105505 106.260749,48.3281234 104.942383,48.640625 C103.624017,48.9531266 102.33985,49.109375 101.089844,49.109375 C100.562497,49.109375 99.9765657,48.9140645 99.3320312,48.5234375 C98.6874968,48.1328105 98.0869168,47.6591825 97.5302734,47.1025391 C96.97363,46.5458957 96.5097675,45.9648468 96.1386719,45.359375 C95.7675763,44.7539032 95.5820312,44.2363303 95.5820312,43.8066406 C95.5820312,43.7577782 95.5822358,43.7090385 95.5826448,43.6604215 C94.9805026,44.1681459 94.3601848,44.6758668 93.7216797,45.1835938 C92.9111288,45.8281282 92.120121,46.4042943 91.3486328,46.9121094 C90.5771446,47.4199244 89.8593783,47.8300766 89.1953125,48.1425781 C88.5312467,48.4550797 87.9746116,48.6113281 87.5253906,48.6113281 C87.1933577,48.6113281 86.7587917,48.4599625 86.2216797,48.1572266 C85.6845676,47.8544907 85.1621119,47.4834006 84.6542969,47.0439453 C84.1464818,46.60449 83.7070331,46.150393 83.3359375,45.6816406 C82.9648419,45.2128883 82.7792969,44.8125017 82.7792969,44.4804688 C82.7792969,44.0256448 82.8763835,43.3648849 83.070559,42.4981759 C82.5892883,42.9185734 82.096695,43.3351955 81.5927734,43.7480469 C80.7822225,44.4121127 79.9570354,45.046872 79.1171875,45.6523438 C78.2773396,46.2578155 77.4472697,46.7949195 76.6269531,47.2636719 C75.8066365,47.7324242 75.0156288,48.1035143 74.2539062,48.3769531 C73.4921837,48.650392 72.7793002,48.7871094 72.1152344,48.7871094 C71.5488253,48.7871094 70.9238315,48.650392 70.2402344,48.3769531 C69.5566372,48.1035143 68.9121124,47.7714863 68.3066406,47.3808594 C67.7011688,46.9902324 67.1738304,46.5800803 66.7246094,46.1503906 C66.2753884,45.720701 66.0117191,45.3593765 65.9335938,45.0664062 C65.9335938,45.0273436 65.9726559,44.9443366 66.0507812,44.8173828 C66.1289066,44.6904291 66.2216792,44.5585944 66.3291016,44.421875 C66.436524,44.2851556 66.5439448,44.1630865 66.6513672,44.0556641 C66.7587896,43.9482417 66.8417966,43.8945312 66.9003906,43.8945312 C67.0175787,43.8945312 67.2519514,43.982421 67.6035156,44.1582031 C67.9550799,44.3339853 68.5410115,44.421875 69.3613281,44.421875 C69.8105491,44.421875 70.1962875,44.3046887 70.5185547,44.0703125 C70.8408219,43.8359363 71.1093739,43.5234395 71.3242188,43.1328125 C71.5390636,42.7421855 71.695312,42.2929713 71.7929688,41.7851562 C71.8906255,41.2773412 71.9394531,40.7402372 71.9394531,40.1738281 C71.9394531,39.3535115 71.900391,38.557621 71.8222656,37.7861328 C71.7441402,37.0146446 71.6562505,36.2675817 71.5585938,35.5449219 C71.2265608,35.9355488 70.8457053,36.345701 70.4160156,36.7753906 C69.986326,37.2050803 69.55176,37.6298807 69.1123047,38.0498047 C68.6728494,38.4697287 68.2334006,38.8798808 67.7939453,39.2802734 C67.624626,39.4345421 67.4618313,39.5822863 67.3055606,39.7235065 C67.3268946,39.7468481 67.3480879,39.7700022 67.3691406,39.7929688 C66.939451,40.2226584 66.402347,40.7451141 65.7578125,41.3603516 C65.113278,41.975589 64.4150428,42.6054655 63.6630859,43.25 C62.9111291,43.8945345 62.1298869,44.5390593 61.3193359,45.1835938 C60.508785,45.8281282 59.7226601,46.4042943 58.9609375,46.9121094 C58.1992149,47.4199244 57.4863314,47.8300766 56.8222656,48.1425781 C56.1581998,48.4550797 55.5917992,48.6113281 55.1230469,48.6113281 C54.8300767,48.6113281 54.4589866,48.5087901 54.0097656,48.3037109 C53.5605446,48.0986318 53.1308614,47.8447281 52.7207031,47.5419922 C52.3105448,47.2392563 51.9589858,46.9023456 51.6660156,46.53125 C51.3730454,46.1601544 51.2265625,45.7988299 51.2265625,45.4472656 C51.421876,44.5878863 51.6855452,43.6015681 52.0175781,42.4882812 C52.0489856,42.3829737 52.0806116,42.2774915 52.1124559,42.1718347 C51.721991,42.5265487 51.3143897,42.885936 50.8896484,43.25 C50.1376916,43.8945345 49.3564494,44.5390593 48.5458984,45.1835938 C47.7353475,45.8281282 46.9443398,46.4042943 46.1728516,46.9121094 C45.4013633,47.4199244 44.6835971,47.8300766 44.0195312,48.1425781 C43.3554654,48.4550797 42.7988304,48.6113281 42.3496094,48.6113281 C42.0566392,48.6113281 41.6855491,48.5087901 41.2363281,48.3037109 C40.7871071,48.0986318 40.3574239,47.8447281 39.9472656,47.5419922 C39.5371073,47.2392563 39.1855483,46.9023456 38.8925781,46.53125 C38.5996079,46.1601544 38.453125,45.7988299 38.453125,45.4472656 C38.7460952,44.1386653 39.039061,42.9960986 39.3320312,42.0195312 C39.6250015,41.0429639 39.8984362,40.2080113 40.1523438,39.5146484 C40.4062513,38.8212856 40.6308584,38.2597678 40.8261719,37.8300781 L41.265625,36.8632812 C41.0312488,36.7656245 40.8066417,36.6582037 40.5917969,36.5410156 L39.9472656,36.1894531 C39.6347641,36.521486 39.2880878,36.873045 38.9072266,37.2441406 C38.5263653,37.6152362 38.140627,37.9863263 37.75,38.3574219 C37.359373,38.7285175 36.968752,39.089842 36.578125,39.4414062 C36.187498,39.7929705 35.8359391,40.1152329 35.5234375,40.4082031 L34.1171875,38.9726562 C34.6250025,38.4843726 35.235348,37.8935582 35.9482422,37.2001953 C36.6611364,36.5068325 37.3593716,35.8085973 38.0429688,35.1054688 C37.5546851,34.8124985 37.1152363,34.534181 36.7246094,34.2705078 C36.3339824,34.0068346 36.0019545,33.7675792 35.7285156,33.5527344 C35.3964827,33.3183582 35.1035169,33.1035166 34.8496094,32.9082031 C34.7324213,32.8496091 34.6738281,32.7226572 34.6738281,32.5273438 C34.6738281,32.3124989 34.7568351,32.0048848 34.9228516,31.6044922 C35.088868,31.2040996 35.2988269,30.7744164 35.5527344,30.3154297 C35.8066419,29.856443 36.0800767,29.3876977 36.3730469,28.9091797 C36.6660171,28.4306617 36.9492174,27.9960957 37.2226562,27.6054688 C37.4960951,27.2148418 37.7353505,26.8974622 37.9404297,26.6533203 C38.1455088,26.4091785 38.2773435,26.2871094 38.3359375,26.2871094 C38.3750002,26.2871094 38.5068348,26.335937 38.7314453,26.4335938 C38.9560558,26.5312505 39.1953112,26.6435541 39.4492188,26.7705078 C39.7031263,26.8974616 39.9374989,27.0390617 40.1523438,27.1953125 C40.3671886,27.3515633 40.503906,27.4882807 40.5625,27.6054688 C40.5820313,27.7031255 40.6015624,27.9082016 40.6210938,28.2207031 C40.6406251,28.5332047 40.6601562,28.9140603 40.6796875,29.3632812 C41.4414101,29.7539082 42.2226522,30.1982397 43.0234375,30.6962891 C43.8242228,31.1943384 44.5566373,31.6679665 45.2207031,32.1171875 C46.001957,32.6250025 46.7441371,33.1425755 47.4472656,33.6699219 C47.7011731,33.8261727 47.8623043,34.0214832 47.9306641,34.2558594 C47.9990238,34.4902355 48.0039065,34.6953116 47.9453125,34.8710938 C47.691405,35.6328163 47.3740253,36.5019482 46.9931641,37.4785156 C46.6123028,38.455083 46.2460955,39.4121047 45.8945312,40.3496094 C45.542967,41.2871141 45.2451184,42.1367149 45.0009766,42.8984375 C44.7568347,43.6601601 44.6347656,44.2070296 44.6347656,44.5390625 C44.6347656,44.6562506 44.6933588,44.7148438 44.8105469,44.7148438 C45.0253917,44.7148438 45.3476541,44.5878919 45.7773438,44.3339844 C46.2070334,44.0800769 46.7001925,43.7480489 47.2568359,43.3378906 C47.8134793,42.9277323 48.3945282,42.4785181 49,41.9902344 C49.6054718,41.5019507 50.1865207,41.0185571 50.7431641,40.5400391 C51.2998075,40.061521 51.8027321,39.6269551 52.2519531,39.2363281 C52.7011741,38.8457012 53.0429676,38.5527354 53.2773438,38.3574219 C53.2908926,38.3709708 53.3046446,38.3848097 53.3185995,38.3989387 C53.629284,37.4857126 53.9524441,36.5880903 54.2880859,35.7060547 C54.7080099,34.6025335 55.0888655,33.621098 55.4306641,32.7617188 C55.7724626,31.9023395 56.0703112,31.208987 56.3242188,30.6816406 C56.5781263,30.1542942 56.7441402,29.890625 56.8222656,29.890625 C56.9394537,29.890625 57.2324195,30.0175769 57.7011719,30.2714844 C58.1699242,30.5253919 58.6630833,30.833006 59.1806641,31.1943359 C59.6982448,31.5556659 60.1621073,31.9365214 60.5722656,32.3369141 C60.9824239,32.7373067 61.1875,33.0839829 61.1875,33.3769531 C61.1875,33.4355472 61.1777345,33.5087886 61.1582031,33.5966797 C61.1386718,33.6845708 61.1093752,33.7968743 61.0703125,33.9335938 C60.9140617,34.4218774 60.7138684,34.9980436 60.4697266,35.6621094 C60.2255847,36.3261752 59.9667982,37.0146449 59.6933594,37.7275391 L58.8730469,39.8662109 C58.599608,40.5791051 58.3554698,41.2480438 58.140625,41.8730469 C57.9257802,42.49805 57.7500007,43.0449195 57.6132813,43.5136719 C57.4765618,43.9824242 57.4082031,44.3242177 57.4082031,44.5390625 C57.4082031,44.6562506 57.4667963,44.7148438 57.5839844,44.7148438 C57.7988292,44.7148438 58.1210916,44.5878919 58.5507813,44.3339844 C58.9804709,44.0800769 59.47363,43.7480489 60.0302734,43.3378906 C60.5869168,42.9277323 61.1679657,42.4785181 61.7734375,41.9902344 C62.3789093,41.5019507 62.9599582,41.0185571 63.5166016,40.5400391 C64.073245,40.061521 64.5761696,39.6269551 65.0253906,39.2363281 C65.1185761,39.1552973 65.2071389,39.0784689 65.2910791,39.0058428 L65.2011719,38.9140625 C65.6503929,38.4843729 66.1630831,37.9960965 66.7392578,37.4492188 C67.3154326,36.902341 67.8915987,36.3066438 68.4677734,35.6621094 C69.0439482,35.0175749 69.5810522,34.3242225 70.0791016,33.5820312 C70.5771509,32.83984 70.9726548,32.0390668 71.265625,31.1796875 C71.3437504,30.7304665 71.4658195,30.2568384 71.6318359,29.7587891 C71.7978524,29.2607397 71.9833974,28.8066427 72.1884766,28.3964844 C72.3935557,27.9863261 72.593749,27.6445326 72.7890625,27.3710938 C72.984376,27.0976549 73.1601555,26.9609375 73.3164062,26.9609375 C73.5507824,27.0976569 73.9023414,27.3564434 74.3710938,27.7373047 C74.8398461,28.118166 75.3085914,28.5234354 75.7773438,28.953125 C76.2460961,29.3828146 76.661131,29.7783185 77.0224609,30.1396484 C77.3837909,30.5009784 77.5644531,30.7207027 77.5644531,30.7988281 C77.330077,31.6972701 77.2177734,32.5078089 77.2275391,33.2304688 C77.2373047,33.9531286 77.2958979,34.6660121 77.4033203,35.3691406 C77.5107427,36.0722691 77.6279291,36.819332 77.7548828,37.6103516 C77.8818366,38.4013711 77.9453125,39.3144479 77.9453125,40.3496094 C77.9453125,40.9746125 77.8427745,41.6923788 77.6376953,42.5029297 C77.4326162,43.3134806 77.0761744,44.0410124 76.5683594,44.6855469 C77.5644581,44.0996064 78.5507764,43.4404333 79.5273438,42.7080078 C80.5039111,41.9755823 81.3730431,41.2871126 82.1347656,40.6425781 C82.78412,40.0920385 83.4130623,39.5415049 84.0216021,38.9909686 C84.1809037,38.464957 84.3527393,37.9168613 84.5371094,37.3466797 C85.0644558,35.7158122 85.6650357,33.9726655 86.3388672,32.1171875 C87.0126987,30.2617095 87.6914028,28.4453214 88.375,26.6679688 L84.2148438,26.6679688 C84.1953124,26.6679688 84.1855469,26.6484377 84.1855469,26.609375 C84.1855469,26.4921869 84.2294917,26.3212902 84.3173828,26.0966797 C84.4052739,25.8720692 84.5126947,25.6376965 84.6396484,25.3935547 C84.7666022,25.1494128 84.9130851,24.9248057 85.0791016,24.7197266 C85.245118,24.5146474 85.4062492,24.3828128 85.5625,24.3242188 L89.3710938,24.1484375 C89.9179715,22.8203059 90.4404272,21.5947322 90.9384766,20.4716797 C91.4365259,19.3486272 91.8808574,18.3867228 92.2714844,17.5859375 C92.3691411,17.3710927 92.4716792,17.1416028 92.5791016,16.8974609 C92.686524,16.6533191 92.8427724,16.4091809 93.0478516,16.1650391 C93.2529307,15.9208972 93.5263655,15.6669935 93.8681641,15.4033203 C94.2099626,15.1396471 94.6738252,14.8710951 95.2597656,14.5976562 C95.6894553,14.3828114 96.211911,14.1484388 96.8271484,13.8945312 C97.4423859,13.6406237 98.0478486,13.4062511 98.6435547,13.1914062 C99.2392608,12.9765614 99.7812476,12.7958992 100.269531,12.6494141 C100.757815,12.502929 101.109374,12.4296875 101.324219,12.4296875 C101.519532,12.4296875 101.617188,12.4687496 101.617188,12.546875 L101.617188,12.6054688 C101.617188,12.6250001 101.597656,12.6738277 101.558594,12.7519531 C101.441406,12.9472666 101.226564,13.372067 100.914063,14.0263672 C100.601561,14.6806673 100.215823,15.5009716 99.7568359,16.4873047 C99.2978493,17.4736377 98.7900418,18.5966734 98.2333984,19.8564453 C97.676755,21.1162172 97.1054717,22.4492117 96.5195313,23.8554688 L103.550781,23.5917969 C103.746095,23.5917969 103.804688,23.7089832 103.726563,23.9433594 C103.648437,24.1777355 103.501954,24.4511703 103.287109,24.7636719 C103.072265,25.0761734 102.823244,25.3984358 102.540039,25.7304688 C102.256835,26.0625017 102.017579,26.3164054 101.822266,26.4921875 C101.783203,26.5312502 101.705079,26.5703123 101.587891,26.609375 C101.470703,26.6484377 101.32422,26.6679688 101.148438,26.6679688 L95.3476563,26.6679688 C94.6445277,28.367196 93.9707063,30.0859288 93.3261719,31.8242188 C92.6816374,33.5625087 92.1054713,35.2128828 91.5976563,36.7753906 C91.0898412,38.3378984 90.6845718,39.773431 90.3818359,41.0820312 C90.0791,42.3906315 89.9277344,43.4648396 89.9277344,44.3046875 C89.9277344,44.4218756 89.9863275,44.4804688 90.1035156,44.4804688 C90.3183604,44.4804688 90.6406229,44.3583997 91.0703125,44.1142578 C91.5000021,43.870116 91.9833958,43.5527363 92.5205078,43.1621094 C93.0576199,42.7714824 93.6289032,42.3417992 94.234375,41.8730469 C94.8293267,41.4124391 95.3959822,40.9565527 95.9343581,40.5053744 C96.0207533,40.1265376 96.1230375,39.7572334 96.2412109,39.3974609 C96.6806663,38.0595636 97.2617151,36.853521 97.984375,35.7792969 C98.7070349,34.7050728 99.5322219,33.7578166 100.459961,32.9375 C101.3877,32.1171834 102.354487,31.4335965 103.360352,30.8867188 C104.366216,30.339841 105.367183,29.9296889 106.363281,29.65625 C107.35938,29.3828111 108.27734,29.2460938 109.117188,29.2460938 C109.722659,29.2460938 110.323239,29.4218732 110.918945,29.7734375 C111.514651,30.1250018 112.056638,30.554685 112.544922,31.0625 C113.033206,31.570315 113.428709,32.1025363 113.731445,32.6591797 C114.034181,33.2158231 114.185547,33.6992167 114.185547,34.109375 C114.185547,34.7734408 113.907229,35.452145 113.350586,36.1455078 C112.793943,36.8388707 112.007818,37.5468714 110.992188,38.2695312 C109.976557,38.9921911 108.755867,39.7294884 107.330078,40.4814453 C105.90429,41.2334022 104.33204,41.9902306 102.613281,42.7519531 C102.554687,43.2207055 102.525391,43.6796853 102.525391,44.1289062 C102.525391,44.734378 102.657225,45.1445302 102.920898,45.359375 C103.184572,45.5742198 103.677731,45.6816406 104.400391,45.6816406 C105.68946,45.6816406 106.905268,45.466799 108.047852,45.0371094 C109.190435,44.6074197 110.289057,44.0507847 111.34375,43.3671875 C112.398443,42.6835903 113.414058,41.9023481 114.390625,41.0234375 C115.162012,40.3291893 115.927297,39.6288563 116.686493,38.9224253 Z M25.4160156,6.8046875 C23.7167884,11.2187721 22.051766,15.3691212 20.4208984,19.2558594 C18.7900309,23.1425976 17.1445396,26.9120911 15.484375,30.5644531 C17.0273515,29.3144469 18.6093669,27.9814524 20.2304688,26.5654297 C21.8515706,25.149407 23.4628826,23.6845779 25.0644531,22.1708984 C26.6660236,20.657219 28.2333908,19.1045001 29.7666016,17.5126953 C31.2998124,15.9208905 32.7451104,14.3291095 34.1025391,12.7373047 C35.4599677,11.1454999 36.7050725,9.57324995 37.8378906,8.02050781 C38.9707088,6.46776567 39.9472615,4.9589917 40.7675781,3.49414062 C41.2558618,3.84570488 41.7929658,4.25585703 42.3789062,4.72460937 C42.9648467,5.19336172 43.5605438,5.68652085 44.1660156,6.20410156 C44.7714874,6.72168228 45.357419,7.2294897 45.9238281,7.72753906 C46.4902372,8.22558843 46.9980446,8.66015439 47.4472656,9.03125 C45.5527249,11.0625102 43.6386815,13.0302639 41.7050781,14.9345703 C39.7714747,16.8388767 37.6767691,18.7382718 35.4208984,20.6328125 C33.1650278,22.5273532 30.6797011,24.4462793 27.9648438,26.3896484 C25.2499864,28.3330175 22.1738453,30.3593645 18.7363281,32.46875 C21.2754033,36.9023659 23.5947161,40.7451009 25.6943359,43.9970703 C27.7939558,47.2490397 29.8007717,50.0273322 31.7148438,52.3320312 C31.5195303,52.4101566 31.1093781,52.6005844 30.484375,52.9033203 C29.8593719,53.2060562 29.1562539,53.5478497 28.375,53.9287109 C27.5937461,54.3095722 26.8076211,54.685545 26.0166016,55.0566406 C25.225582,55.4277362 24.5859399,55.7207021 24.0976562,55.9355469 C22.8671813,53.3769403 21.4658282,50.1250197 19.8935547,46.1796875 C18.3212812,42.2343553 16.6171967,37.5371366 14.78125,32.0878906 C13.2187422,35.4668138 11.6123129,38.8066241 9.96191406,42.1074219 C8.31151519,45.4082196 6.56836855,48.7968576 4.73242188,52.2734375 C3.87304258,51.5898403 3.04297275,50.9892604 2.2421875,50.4716797 C1.44140225,49.954099 0.767580859,49.500002 0.220703125,49.109375 C1.08008242,47.4101478 2.01757305,45.4716906 3.03320312,43.2939453 C4.0488332,41.1162 5.09862739,38.7529424 6.18261719,36.2041016 C7.26660698,33.6552607 8.37011157,30.9599751 9.49316406,28.1181641 C10.6162166,25.276353 11.7246039,22.341812 12.8183594,19.3144531 C13.9121148,16.2870942 14.9716746,13.2060704 15.9970703,10.0712891 C17.0224661,6.93650776 17.9843705,3.80665625 18.8828125,0.681640625 C19.4492216,1.22851836 20.040036,1.77050513 20.6552734,2.30761719 C21.2705109,2.84472925 21.8710908,3.37206772 22.4570312,3.88964844 C23.0429717,4.40722915 23.594724,4.91503657 24.1123047,5.41308594 C24.6298854,5.9111353 25.0644514,6.37499785 25.4160156,6.8046875 Z M66.7246094,20.9550781 C66.705078,21.0332035 66.6318366,21.2236313 66.5048828,21.5263672 C66.3779291,21.8291031 66.2265634,22.1806621 66.0507812,22.5810547 C65.8749991,22.9814473 65.6748058,23.401365 65.4501953,23.8408203 C65.2255848,24.2802756 65.0058604,24.685545 64.7910156,25.0566406 C64.5761708,25.4277362 64.3710947,25.7353503 64.1757812,25.9794922 C63.9804678,26.223634 63.8242193,26.3457031 63.7070312,26.3457031 C63.355467,26.3261718 62.9306666,26.218751 62.4326172,26.0234375 C61.9345678,25.828124 61.456057,25.6083997 60.9970703,25.3642578 C60.5380836,25.120116 60.1474625,24.8808605 59.8251953,24.6464844 C59.5029281,24.4121082 59.3417969,24.2460942 59.3417969,24.1484375 C59.3417969,23.7382792 59.4589832,23.206058 59.6933594,22.5517578 C59.9277355,21.8974577 60.2011703,21.2626984 60.5136719,20.6474609 C60.8261734,20.0322235 61.1435531,19.5000022 61.4658203,19.0507812 C61.7880875,18.6015603 62.0371085,18.3769531 62.2128906,18.3769531 C62.5644549,18.3769531 62.9941381,18.4892567 63.5019531,18.7138672 C64.0097682,18.9384777 64.5029273,19.1972642 64.9814453,19.4902344 C65.4599633,19.7832046 65.8701155,20.0712876 66.2119141,20.3544922 C66.5537126,20.6376967 66.7246094,20.83789 66.7246094,20.9550781 Z M108.414063,32.46875 C108.023436,32.46875 107.593752,32.6787088 107.125,33.0986328 C106.656248,33.5185568 106.187502,34.0703091 105.71875,34.7539062 C105.249998,35.4375034 104.800783,36.2236284 104.371094,37.1123047 C103.941404,38.000981 103.570314,38.9238233 103.257813,39.8808594 C103.980472,39.412107 104.688473,38.9140651 105.381836,38.3867188 C106.075199,37.8593724 106.69531,37.3076201 107.242188,36.7314453 C107.789065,36.1552706 108.228514,35.5644562 108.560547,34.9589844 C108.89258,34.3535126 109.058594,33.7480499 109.058594,33.1425781 C109.058594,32.966796 109.004883,32.8105476 108.897461,32.6738281 C108.790039,32.5371087 108.628907,32.46875 108.414063,32.46875 Z M195.220703,10.3496094 C194.576169,13.7871266 193.560554,17.1220542 192.173828,20.3544922 C190.787102,23.5869302 189.180673,26.6435403 187.354492,29.5244141 C185.528311,32.4052878 183.545909,35.0859251 181.407227,37.5664062 C179.268544,40.0468874 177.129894,42.2587793 174.991211,44.2021484 C172.852528,46.1455175 170.787119,47.7910089 168.794922,49.1386719 C166.802724,50.4863349 165.035164,51.4726531 163.492188,52.0976562 C163.277343,52.195313 163.086915,52.2587889 162.920898,52.2880859 C162.754882,52.317383 162.642578,52.3320312 162.583984,52.3320312 C162.193357,52.3320312 161.788088,52.1757828 161.368164,51.8632812 C160.94824,51.5507797 160.547853,51.1894552 160.166992,50.7792969 C159.786131,50.3691386 159.454103,49.9589864 159.170898,49.5488281 C158.887694,49.1386698 158.687501,48.8261729 158.570313,48.6113281 C158.472656,48.4550773 158.375,48.2255875 158.277344,47.9228516 C158.179687,47.6201157 158.130859,47.2734395 158.130859,46.8828125 C158.130859,45.8671824 158.23828,44.4951258 158.453125,42.7666016 C158.66797,41.0380773 158.980467,39.060558 159.390625,36.8339844 C159.800783,34.6074107 160.284177,32.18556 160.84082,29.5683594 C161.397464,26.9511588 162.02734,24.2461077 162.730469,21.453125 C163.433597,18.6601423 164.185543,15.8232566 164.986328,12.9423828 C165.787113,10.061509 166.626949,7.25391992 167.505859,4.51953125 C167.79883,4.83203281 168.160154,5.24218496 168.589844,5.75 C169.019533,6.25781504 169.468748,6.79980181 169.9375,7.37597656 C170.406252,7.95215132 170.870115,8.5332002 171.329102,9.11914062 C171.788088,9.70508105 172.19824,10.2324195 172.55957,10.7011719 C172.9209,11.1699242 173.208983,11.5556625 173.423828,11.8583984 L173.746094,12.3125 C172.691401,15.3984529 171.709965,18.4941251 170.801758,21.5996094 C169.89355,24.7050937 169.043949,27.7470554 168.25293,30.7255859 C167.46191,33.7041165 166.724613,36.5800643 166.041016,39.3535156 C165.357418,42.126967 164.722659,44.7245973 164.136719,47.1464844 C166.441418,45.7402273 168.604482,44.0703222 170.625977,42.1367188 C172.647471,40.2031153 174.507804,38.0986442 176.207031,35.8232422 C177.906258,33.5478402 179.424798,31.1455205 180.762695,28.6162109 C182.100593,26.0869014 183.233394,23.5283333 184.161133,20.9404297 C185.088872,18.3525261 185.796873,15.7841924 186.285156,13.2353516 C186.77344,10.6865107 187.017578,8.24024609 187.017578,5.89648438 C187.017578,5.23241855 186.993164,4.66113521 186.944336,4.18261719 C186.895508,3.70409917 186.841797,3.29882979 186.783203,2.96679688 C186.724609,2.63476396 186.670899,2.37597749 186.62207,2.19042969 C186.573242,2.00488188 186.539063,1.86328174 186.519531,1.765625 L195.220703,10.3496094 Z M207.90625,63.7285156 C208.296877,63.7285156 208.858395,63.430667 209.59082,62.8349609 C210.323246,62.2392548 211.099605,61.4775437 211.919922,60.5498047 C212.740238,59.6220657 213.545894,58.5966853 214.336914,57.4736328 C215.127934,56.3505803 215.787107,55.261724 216.314453,54.2070312 C215.044916,55.1250046 213.882818,55.9892538 212.828125,56.7998047 C211.773432,57.6103556 210.870121,58.3964806 210.118164,59.1582031 C209.366207,59.9199257 208.780276,60.657223 208.360352,61.3701172 C207.940428,62.0830114 207.730469,62.7910121 207.730469,63.4941406 C207.730469,63.6503914 207.789062,63.7285156 207.90625,63.7285156 Z M242.59375,32.46875 C242.203123,32.46875 241.77344,32.6787088 241.304688,33.0986328 C240.835935,33.5185568 240.36719,34.0703091 239.898438,34.7539062 C239.429685,35.4375034 238.980471,36.2236284 238.550781,37.1123047 C238.121092,38.000981 237.750002,38.9238233 237.4375,39.8808594 C238.16016,39.412107 238.868161,38.9140651 239.561523,38.3867188 C240.254886,37.8593724 240.874997,37.3076201 241.421875,36.7314453 C241.968753,36.1552706 242.408201,35.5644562 242.740234,34.9589844 C243.072267,34.3535126 243.238281,33.7480499 243.238281,33.1425781 C243.238281,32.966796 243.184571,32.8105476 243.077148,32.6738281 C242.969726,32.5371087 242.808595,32.46875 242.59375,32.46875 Z M262.339844,23.4746094 C262.007811,24.2168006 261.700197,24.9394496 261.416992,25.6425781 C261.133788,26.3457066 260.865236,27.0390591 260.611328,27.7226562 C261.2168,27.0390591 261.768552,26.3847687 262.266602,25.7597656 C262.764651,25.1347625 263.189451,24.5976585 263.541016,24.1484375 C263.951174,23.6210911 264.322264,23.1230492 264.654297,22.6542969 C266.021491,20.7402248 267.20312,18.9824299 268.199219,17.3808594 C269.195317,15.7792889 270.015622,14.3681702 270.660156,13.1474609 C271.304691,11.9267517 271.778319,10.9111369 272.081055,10.1005859 C272.383791,9.29003501 272.535156,8.70898613 272.535156,8.35742188 C272.535156,8.25976514 272.530273,8.18652368 272.520508,8.13769531 C272.510742,8.08886694 272.457032,8.06445312 272.359375,8.06445312 C272.183593,8.06445312 271.783206,8.35253618 271.158203,8.92871094 C270.5332,9.50488569 269.766606,10.4179625 268.858398,11.6679688 C267.950191,12.917975 266.934576,14.5146387 265.811523,16.4580078 C264.688471,18.4013769 263.531256,20.7402207 262.339844,23.4746094 Z" id="Kristen-Vogel" fill="#71D5D2"></path>
    </g>
</svg>